<svg xmlns="http://www.w3.org/2000/svg" width="26.854" height="26.848" viewBox="0 0 26.854 26.848">
  <path id="Icon_awesome-instagram" data-name="Icon awesome-instagram" d="M13.425,8.778a6.884,6.884,0,1,0,6.884,6.884A6.873,6.873,0,0,0,13.425,8.778Zm0,11.359A4.475,4.475,0,1,1,17.9,15.662a4.483,4.483,0,0,1-4.475,4.475ZM22.2,8.5A1.606,1.606,0,1,1,20.59,6.891,1.6,1.6,0,0,1,22.2,8.5Zm4.559,1.63A7.946,7.946,0,0,0,24.586,4.5,8,8,0,0,0,18.96,2.332c-2.217-.126-8.861-.126-11.077,0A7.986,7.986,0,0,0,2.258,4.495,7.972,7.972,0,0,0,.089,10.12c-.126,2.217-.126,8.861,0,11.077a7.946,7.946,0,0,0,2.169,5.625,8.008,8.008,0,0,0,5.625,2.169c2.217.126,8.861.126,11.077,0a7.946,7.946,0,0,0,5.625-2.169A8,8,0,0,0,26.755,21.2c.126-2.217.126-8.855,0-11.071Zm-2.864,13.45a4.531,4.531,0,0,1-2.552,2.552c-1.767.7-5.961.539-7.914.539s-6.153.156-7.914-.539a4.531,4.531,0,0,1-2.552-2.552c-.7-1.767-.539-5.961-.539-7.914s-.156-6.153.539-7.914A4.531,4.531,0,0,1,5.511,5.2c1.767-.7,5.961-.539,7.914-.539s6.153-.156,7.914.539a4.531,4.531,0,0,1,2.552,2.552c.7,1.767.539,5.961.539,7.914S24.592,21.814,23.891,23.576Z" transform="translate(0.005 -2.238)" fill="#fff"/>
</svg>
