<svg xmlns="http://www.w3.org/2000/svg" width="27.421" height="27.421" viewBox="0 0 27.421 27.421">
  <path id="globe" d="M23.4,4.017a13.707,13.707,0,1,0,0,19.385A13.7,13.7,0,0,0,23.4,4.017ZM22.83,21.449a13.74,13.74,0,0,0-2.048-1.516,22.169,22.169,0,0,0,.827-5.349h4.03A11.852,11.852,0,0,1,22.83,21.449ZM1.782,14.584h4.03a22.169,22.169,0,0,0,.827,5.349,13.74,13.74,0,0,0-2.048,1.516A11.852,11.852,0,0,1,1.782,14.584ZM4.591,5.971A13.74,13.74,0,0,0,6.639,7.488a22.169,22.169,0,0,0-.827,5.349H1.782A11.852,11.852,0,0,1,4.591,5.971Zm8.246,1.7A11.868,11.868,0,0,1,8.765,6.637c.741-1.907,2.106-4.195,4.072-4.761Zm0,1.75v3.418H7.559a20.581,20.581,0,0,1,.662-4.529A13.616,13.616,0,0,0,12.837,9.419Zm0,5.165V18a13.616,13.616,0,0,0-4.615,1.111,20.581,20.581,0,0,1-.662-4.529Zm0,5.168v5.793c-1.966-.567-3.331-2.854-4.072-4.761A11.868,11.868,0,0,1,12.837,19.752Zm1.747,0a11.868,11.868,0,0,1,4.072,1.032c-.741,1.907-2.106,4.195-4.072,4.761Zm0-1.75V14.584h5.278a20.581,20.581,0,0,1-.662,4.529A13.616,13.616,0,0,0,14.584,18Zm0-5.165V9.419A13.616,13.616,0,0,0,19.2,8.308a20.581,20.581,0,0,1,.662,4.529Zm0-5.168V1.875c1.966.567,3.331,2.854,4.072,4.761A11.869,11.869,0,0,1,14.584,7.668Zm3.924-4.921a11.908,11.908,0,0,1,3.1,1.977A12.006,12.006,0,0,1,20.2,5.791,13.151,13.151,0,0,0,18.508,2.747ZM7.222,5.791A12.011,12.011,0,0,1,5.817,4.725a11.908,11.908,0,0,1,3.1-1.977A13.156,13.156,0,0,0,7.222,5.791Zm0,15.838a13.153,13.153,0,0,0,1.691,3.044,11.908,11.908,0,0,1-3.1-1.977A12.006,12.006,0,0,1,7.222,21.629Zm12.977,0A12.011,12.011,0,0,1,21.6,22.7a11.908,11.908,0,0,1-3.1,1.977A13.151,13.151,0,0,0,20.2,21.629Zm1.411-8.792a22.168,22.168,0,0,0-.827-5.349A13.743,13.743,0,0,0,22.83,5.971a11.852,11.852,0,0,1,2.809,6.865Z" transform="translate(0 0)" fill="#fff"/>
</svg>
